<svg xmlns="http://www.w3.org/2000/svg" version="1.1" xmlns:xlink="http://www.w3.org/1999/xlink" xmlns:svgjs="http://svgjs.dev/svgjs" width="1000" height="625" viewBox="0 0 1000 625"><g transform="matrix(1,0,0,1,0,0)"><svg viewBox="0 0 512 320" data-background-color="#282634" preserveAspectRatio="xMidYMid meet" height="625" width="1000" xmlns="http://www.w3.org/2000/svg" xmlns:xlink="http://www.w3.org/1999/xlink"><g id="tight-bounds" transform="matrix(1,0,0,1,0,0)"><svg viewBox="0 0 512 320" height="320" width="512"><rect width="512" height="320" fill="url(#da0363f7-797f-4826-a58c-44310904b1fd)" mask="url(#8b39dbb8-3831-4c7e-81dd-87d685baa8e5)" data-fill-palette-color="tertiary"></rect><g><svg></svg></g><g><svg viewBox="0 0 512 320" height="320" width="512"><g><path xmlns="http://www.w3.org/2000/svg" d="M96 320l0-320 320 0 0 320zM406.776 310.776l0-301.552-301.552 0 0 301.552z" fill="url(#da0363f7-797f-4826-a58c-44310904b1fd)" fill-rule="nonzero" stroke="none" stroke-width="1" stroke-linecap="butt" stroke-linejoin="miter" stroke-miterlimit="10" stroke-dasharray="" stroke-dashoffset="0" font-family="none" font-weight="none" font-size="none" text-anchor="none" style="mix-blend-mode: normal" data-fill-palette-color="tertiary"></path></g><g transform="matrix(1,0,0,1,176.54528762041886,80)"><svg viewBox="0 0 158.90942475916228 160" height="160" width="158.90942475916228"><g><svg viewBox="0 0 158.90942475916228 160" height="160" width="158.90942475916228"><g><svg viewBox="0 0 230.40000000000003 231.98120599750348" height="160" width="158.90942475916228"><g><svg viewBox="0 0 230.40000000000003 148.3058191584602" height="148.3058191584602" width="230.40000000000003"><g id="textblocktransform"><svg viewBox="0 0 230.40000000000003 148.3058191584602" height="148.3058191584602" width="230.40000000000003" id="textblock"><g><svg viewBox="0 0 230.40000000000003 148.3058191584602" height="148.3058191584602" width="230.40000000000003"><g transform="matrix(1,0,0,1,0,0)"><svg width="230.40000000000003" viewBox="1 -35.70000076293945 55.849998474121094 35.95000076293945" height="148.3058191584602" data-palette-color="url(#bca3ecdd-cfbb-4544-ae17-145dadebd0a2)"></svg></g></svg></g></svg></g></svg></g><g transform="matrix(1,0,0,1,61.80480000000001,183.31726372211284)"><svg viewBox="0 0 106.79040000000002 48.66394227539064" height="48.66394227539064" width="106.79040000000002"><g><svg xmlns="http://www.w3.org/2000/svg" xmlns:xlink="http://www.w3.org/1999/xlink" version="1.1" x="0" y="0" viewBox="5 29.493873596191406 90 41.01262664794922" enable-background="new 0 0 100 100" xml:space="preserve" height="48.66394227539064" width="106.79040000000002" class="icon-icon-0" data-fill-palette-color="accent" id="icon-0"></svg></g></svg></g><g></g></svg></g></svg></g></svg></g></svg></g><defs></defs><mask id="50d36dff-897d-44d3-b5e6-6aece89d9f9c"><g id="SvgjsG2635"><svg viewBox="0 0 512 320" height="320" width="512"><g><svg></svg></g><g><svg viewBox="0 0 512 320" height="320" width="512"><g></g><g transform="matrix(1,0,0,1,176.54528762041886,80)"><svg viewBox="0 0 158.90942475916228 160" height="160" width="158.90942475916228"><g><svg viewBox="0 0 158.90942475916228 160" height="160" width="158.90942475916228"><g><svg viewBox="0 0 230.40000000000003 231.98120599750348" height="160" width="158.90942475916228"><g><svg viewBox="0 0 230.40000000000003 148.3058191584602" height="148.3058191584602" width="230.40000000000003"><g id="SvgjsG2634"><svg viewBox="0 0 230.40000000000003 148.3058191584602" height="148.3058191584602" width="230.40000000000003" id="SvgjsSvg2633"><g><svg viewBox="0 0 230.40000000000003 148.3058191584602" height="148.3058191584602" width="230.40000000000003"><g transform="matrix(1,0,0,1,0,0)"><svg width="230.40000000000003" viewBox="1 -35.70000076293945 55.849998474121094 35.95000076293945" height="148.3058191584602" data-palette-color="url(#bca3ecdd-cfbb-4544-ae17-145dadebd0a2)"><path d="M5.75-11.55L5.75-17.75 5.9-26.4Q5.9-27.75 5.8-30.95L5.8-30.95Q5.75-32.4 4.55-33.2 3.35-34 2.3-34.02 1.25-34.05 1.13-34.23 1-34.4 1-34.75L1-34.75Q1-35.65 2.35-35.65L2.35-35.65 3.7-35.55 8.05-35.35 13.3-35.55Q14.15-35.55 14.15-35.05L14.15-35.05Q14.15-34.35 13.55-34.13 12.95-33.9 12.23-33.83 11.5-33.75 10.83-32.73 10.15-31.7 10.05-29.7 9.95-27.7 9.8-18.75 9.65-9.8 9.65-8.75L9.65-8.75 9.65-6.75Q9.65-3.15 10.88-2.78 12.1-2.4 13-2.4L13-2.4Q20.5-2.4 23.8-3.6L23.8-3.6Q26.8-4.7 27.4-5.9L27.4-5.9Q28.05-7.15 28.55-7.15L28.55-7.15Q29.15-7.15 29.15-6.3L29.15-6.3Q29.15-4.15 27-1.95 24.85 0.25 23.25 0.25L23.25 0.25Q19.65 0.25 15.13 0 10.6-0.25 9.5-0.25L9.5-0.25 3.25 0.15Q1.8 0.15 1.8-0.45L1.8-0.45Q1.8-0.8 2.08-1.03 2.35-1.25 2.85-1.25 3.35-1.25 4.15-1.85 4.95-2.45 5.35-4.33 5.75-6.2 5.75-11.55L5.75-11.55ZM31.15-34.85L31.15-34.85Q31.15-35.2 31.55-35.45 31.95-35.7 32.45-35.7L32.45-35.7 33.8-35.7Q35-35.7 37.67-35.55 40.35-35.4 44.65-35.4L44.65-35.4 56-35.65Q56.85-35.65 56.85-34.45L56.85-34.45Q56.85-33.8 56.55-32.1 56.25-30.4 56.15-29.38 56.05-28.35 55.37-28.35 54.7-28.35 54.7-29.35L54.7-29.35Q54.7-32.65 52.4-32.8L52.4-32.8Q44.85-33.4 43-33.4 41.15-33.4 40.62-32.85 40.1-32.3 40.05-30.6L40.05-30.6 40.05-30.2Q39.9-27.5 39.9-21.85L39.9-21.85Q39.9-19.4 40.8-19.35L40.8-19.35 42.05-19.3 44.2-19.35 45.75-19.35Q48.75-19.35 49.72-19.53 50.7-19.7 51.32-20.13 51.95-20.55 52.2-20.95 52.45-21.35 52.55-21.9 52.65-22.45 52.8-22.7 52.95-22.95 53.4-22.95 53.85-22.95 53.95-22.8 54.05-22.65 54.05-22.23 54.05-21.8 53.82-20.4 53.6-19 53.6-18L53.6-18 53.95-13.9Q53.95-13.1 53.77-12.88 53.6-12.65 53.25-12.65L53.25-12.65Q52.4-12.65 52.2-13.9L52.2-13.9Q52.2-15 51.95-15.45L51.95-15.45Q51.45-16.15 50.92-16.38 50.4-16.6 48.6-16.8 46.8-17 46.25-17L46.25-17 41.9-17Q39.85-17 39.85-16.05L39.85-16.05 39.75-8.85 39.7-6.85Q39.7-5.85 39.9-4.85 40.1-3.85 41.07-2.75 42.05-1.65 43.62-1.65 45.2-1.65 45.2-0.75L45.2-0.75Q45.2-0.3 44.72-0.05 44.25 0.2 43.65 0.2L43.65 0.2 38.8-0.2 32.75 0.1Q31.75 0.1 31.75-0.45L31.75-0.45Q31.75-1.1 31.97-1.25 32.2-1.4 33.9-2L33.9-2Q35.2-2.45 35.5-4.7L35.5-4.7Q35.85-7.25 35.85-17.85L35.85-17.85 36-26.55 36-29.45Q36-32.75 33.65-33.85L33.65-33.85Q32.95-34.15 32.05-34.15 31.15-34.15 31.15-34.85Z" opacity="1" transform="matrix(1,0,0,1,0,0)" fill="white" class="wordmark-text-0" id="SvgjsPath2632"></path></svg></g></svg></g></svg></g></svg></g><g transform="matrix(1,0,0,1,61.80480000000001,183.31726372211284)"><svg viewBox="0 0 106.79040000000002 48.66394227539064" height="48.66394227539064" width="106.79040000000002"><g><svg xmlns="http://www.w3.org/2000/svg" xmlns:xlink="http://www.w3.org/1999/xlink" version="1.1" x="0" y="0" viewBox="5 29.493873596191406 90 41.01262664794922" enable-background="new 0 0 100 100" xml:space="preserve" height="48.66394227539064" width="106.79040000000002" class="icon-icon-0" data-fill-palette-color="accent" id="SvgjsSvg2631"></svg></g></svg></g><g></g></svg></g></svg></g></svg></g></svg></g><defs></defs></svg></g></mask><linearGradient x1="0" x2="1" y1="0.578" y2="0.595" id="bca3ecdd-cfbb-4544-ae17-145dadebd0a2"><stop stop-color="#6ee2f5" offset="0"></stop><stop stop-color="#6454f0" offset="1"></stop></linearGradient><rect width="512" height="320" fill="url(#bca3ecdd-cfbb-4544-ae17-145dadebd0a2)" mask="url(#50d36dff-897d-44d3-b5e6-6aece89d9f9c)" data-fill-palette-color="primary"></rect><mask id="fe67d344-3ef3-4df1-ac0e-407283cc1ede"><g id="SvgjsG2644"><svg viewBox="0 0 512 320" height="320" width="512"><g><svg></svg></g><g><svg viewBox="0 0 512 320" height="320" width="512"><g></g><g transform="matrix(1,0,0,1,176.54528762041886,80)"><svg viewBox="0 0 158.90942475916228 160" height="160" width="158.90942475916228"><g><svg viewBox="0 0 158.90942475916228 160" height="160" width="158.90942475916228"><g><svg viewBox="0 0 230.40000000000003 231.98120599750348" height="160" width="158.90942475916228"><g><svg viewBox="0 0 230.40000000000003 148.3058191584602" height="148.3058191584602" width="230.40000000000003"><g id="SvgjsG2643"><svg viewBox="0 0 230.40000000000003 148.3058191584602" height="148.3058191584602" width="230.40000000000003" id="SvgjsSvg2642"><g><svg viewBox="0 0 230.40000000000003 148.3058191584602" height="148.3058191584602" width="230.40000000000003"><g transform="matrix(1,0,0,1,0,0)"><svg width="230.40000000000003" viewBox="1 -35.70000076293945 55.849998474121094 35.95000076293945" height="148.3058191584602" data-palette-color="url(#bca3ecdd-cfbb-4544-ae17-145dadebd0a2)"></svg></g></svg></g></svg></g></svg></g><g transform="matrix(1,0,0,1,61.80480000000001,183.31726372211284)"><svg viewBox="0 0 106.79040000000002 48.66394227539064" height="48.66394227539064" width="106.79040000000002"><g><svg xmlns="http://www.w3.org/2000/svg" xmlns:xlink="http://www.w3.org/1999/xlink" version="1.1" x="0" y="0" viewBox="5 29.493873596191406 90 41.01262664794922" enable-background="new 0 0 100 100" xml:space="preserve" height="48.66394227539064" width="106.79040000000002" class="icon-icon-0" data-fill-palette-color="accent" id="SvgjsSvg2641"><g fill="white"><path d="M23.943 30.807L5 50.001l18.942 19.192c1.728 1.751 4.53 1.751 6.258 0.002 1.729-1.75 1.73-4.587 0.002-6.338L18.193 50.695l-3.624 2.289 15.634-15.841c0.864-0.875 1.295-2.021 1.295-3.168 0-1.147-0.433-2.295-1.297-3.17C28.473 29.056 25.671 29.057 23.943 30.807z" fill="white"></path><path d="M76.057 30.808L95 50.001 76.058 69.193c-1.728 1.751-4.53 1.751-6.258 0.002-1.729-1.75-1.73-4.587-0.002-6.338l12.009-12.161 3.624 2.289L69.796 37.144c-0.864-0.875-1.295-2.021-1.295-3.168 0-1.147 0.433-2.295 1.297-3.17C71.527 29.056 74.329 29.057 76.057 30.808z" fill="white"></path><path d="M60.899 32.352c-0.419-1.068-1.241-1.978-2.366-2.476-2.249-0.997-4.857 0.028-5.825 2.288l-13.82 32.062c-0.484 1.13-0.467 2.355-0.048 3.422 0.419 1.068 1.241 1.978 2.366 2.476 2.249 0.997 4.857-0.028 5.825-2.288l13.82-32.062C61.335 34.644 61.318 33.419 60.899 32.352z" fill="white"></path></g></svg></g></svg></g><g></g></svg></g></svg></g></svg></g></svg></g><defs></defs><mask><g id="SvgjsG2640"><svg viewBox="0 0 512 320" height="320" width="512"><g><svg></svg></g><g><svg viewBox="0 0 512 320" height="320" width="512"><g></g><g transform="matrix(1,0,0,1,176.54528762041886,80)"><svg viewBox="0 0 158.90942475916228 160" height="160" width="158.90942475916228"><g><svg viewBox="0 0 158.90942475916228 160" height="160" width="158.90942475916228"><g><svg viewBox="0 0 230.40000000000003 231.98120599750348" height="160" width="158.90942475916228"><g><svg viewBox="0 0 230.40000000000003 148.3058191584602" height="148.3058191584602" width="230.40000000000003"><g id="SvgjsG2639"><svg viewBox="0 0 230.40000000000003 148.3058191584602" height="148.3058191584602" width="230.40000000000003" id="SvgjsSvg2638"><g><svg viewBox="0 0 230.40000000000003 148.3058191584602" height="148.3058191584602" width="230.40000000000003"><g transform="matrix(1,0,0,1,0,0)"><svg width="230.40000000000003" viewBox="1 -35.70000076293945 55.849998474121094 35.95000076293945" height="148.3058191584602" data-palette-color="url(#bca3ecdd-cfbb-4544-ae17-145dadebd0a2)"></svg></g></svg></g></svg></g></svg></g><g transform="matrix(1,0,0,1,61.80480000000001,183.31726372211284)"><svg viewBox="0 0 106.79040000000002 48.66394227539064" height="48.66394227539064" width="106.79040000000002"><g><svg xmlns="http://www.w3.org/2000/svg" xmlns:xlink="http://www.w3.org/1999/xlink" version="1.1" x="0" y="0" viewBox="5 29.493873596191406 90 41.01262664794922" enable-background="new 0 0 100 100" xml:space="preserve" height="48.66394227539064" width="106.79040000000002" class="icon-icon-0" data-fill-palette-color="accent" id="SvgjsSvg2636"></svg></g></svg></g><g></g></svg></g></svg></g></svg></g></svg></g><defs></defs></svg></g></mask></svg></g></mask><linearGradient x1="0" x2="1" y1="0.578" y2="0.595" id="af2b1609-3f6b-4cdd-a190-caa5cf6ad489"><stop stop-color="#6ee2f5" offset="0"></stop><stop stop-color="#6454f0" offset="1"></stop></linearGradient><rect width="512" height="320" fill="url(#af2b1609-3f6b-4cdd-a190-caa5cf6ad489)" mask="url(#fe67d344-3ef3-4df1-ac0e-407283cc1ede)" data-fill-palette-color="accent"></rect><mask id="8b39dbb8-3831-4c7e-81dd-87d685baa8e5"><g id="SvgjsG2661"><svg viewBox="0 0 512 320" height="320" width="512"><g><svg></svg></g><g><svg viewBox="0 0 512 320" height="320" width="512"><g><path xmlns="http://www.w3.org/2000/svg" d="M96 320l0-320 320 0 0 320zM406.776 310.776l0-301.552-301.552 0 0 301.552z" fill="white" fill-rule="nonzero" stroke="none" stroke-width="1" stroke-linecap="butt" stroke-linejoin="miter" stroke-miterlimit="10" stroke-dasharray="" stroke-dashoffset="0" font-family="none" font-weight="none" font-size="none" text-anchor="none" style="mix-blend-mode: normal"></path></g><g transform="matrix(1,0,0,1,176.54528762041886,80)"><svg viewBox="0 0 158.90942475916228 160" height="160" width="158.90942475916228"><g><svg viewBox="0 0 158.90942475916228 160" height="160" width="158.90942475916228"><g><svg viewBox="0 0 230.40000000000003 231.98120599750348" height="160" width="158.90942475916228"><g><svg viewBox="0 0 230.40000000000003 148.3058191584602" height="148.3058191584602" width="230.40000000000003"><g id="SvgjsG2660"><svg viewBox="0 0 230.40000000000003 148.3058191584602" height="148.3058191584602" width="230.40000000000003" id="SvgjsSvg2659"><g><svg viewBox="0 0 230.40000000000003 148.3058191584602" height="148.3058191584602" width="230.40000000000003"><g transform="matrix(1,0,0,1,0,0)"><svg width="230.40000000000003" viewBox="1 -35.70000076293945 55.849998474121094 35.95000076293945" height="148.3058191584602" data-palette-color="url(#bca3ecdd-cfbb-4544-ae17-145dadebd0a2)"></svg></g></svg></g></svg></g></svg></g><g transform="matrix(1,0,0,1,61.80480000000001,183.31726372211284)"><svg viewBox="0 0 106.79040000000002 48.66394227539064" height="48.66394227539064" width="106.79040000000002"><g><svg xmlns="http://www.w3.org/2000/svg" xmlns:xlink="http://www.w3.org/1999/xlink" version="1.1" x="0" y="0" viewBox="5 29.493873596191406 90 41.01262664794922" enable-background="new 0 0 100 100" xml:space="preserve" height="48.66394227539064" width="106.79040000000002" class="icon-icon-0" data-fill-palette-color="accent" id="SvgjsSvg2658"></svg></g></svg></g><g></g></svg></g></svg></g></svg></g></svg></g><defs></defs><mask><g id="SvgjsG2657"><svg viewBox="0 0 512 320" height="320" width="512"><g><svg></svg></g><g><svg viewBox="0 0 512 320" height="320" width="512"><g></g><g transform="matrix(1,0,0,1,176.54528762041886,80)"><svg viewBox="0 0 158.90942475916228 160" height="160" width="158.90942475916228"><g><svg viewBox="0 0 158.90942475916228 160" height="160" width="158.90942475916228"><g><svg viewBox="0 0 230.40000000000003 231.98120599750348" height="160" width="158.90942475916228"><g><svg viewBox="0 0 230.40000000000003 148.3058191584602" height="148.3058191584602" width="230.40000000000003"><g id="SvgjsG2656"><svg viewBox="0 0 230.40000000000003 148.3058191584602" height="148.3058191584602" width="230.40000000000003" id="SvgjsSvg2655"><g><svg viewBox="0 0 230.40000000000003 148.3058191584602" height="148.3058191584602" width="230.40000000000003"><g transform="matrix(1,0,0,1,0,0)"><svg width="230.40000000000003" viewBox="1 -35.70000076293945 55.849998474121094 35.95000076293945" height="148.3058191584602" data-palette-color="url(#bca3ecdd-cfbb-4544-ae17-145dadebd0a2)"></svg></g></svg></g></svg></g></svg></g><g transform="matrix(1,0,0,1,61.80480000000001,183.31726372211284)"><svg viewBox="0 0 106.79040000000002 48.66394227539064" height="48.66394227539064" width="106.79040000000002"><g><svg xmlns="http://www.w3.org/2000/svg" xmlns:xlink="http://www.w3.org/1999/xlink" version="1.1" x="0" y="0" viewBox="5 29.493873596191406 90 41.01262664794922" enable-background="new 0 0 100 100" xml:space="preserve" height="48.66394227539064" width="106.79040000000002" class="icon-icon-0" data-fill-palette-color="accent" id="SvgjsSvg2653"></svg></g></svg></g><g></g></svg></g></svg></g></svg></g></svg></g><defs></defs></svg></g></mask><mask><g id="SvgjsG2652"><svg viewBox="0 0 512 320" height="320" width="512"><g><svg></svg></g><g><svg viewBox="0 0 512 320" height="320" width="512"><g></g><g transform="matrix(1,0,0,1,176.54528762041886,80)"><svg viewBox="0 0 158.90942475916228 160" height="160" width="158.90942475916228"><g><svg viewBox="0 0 158.90942475916228 160" height="160" width="158.90942475916228"><g><svg viewBox="0 0 230.40000000000003 231.98120599750348" height="160" width="158.90942475916228"><g><svg viewBox="0 0 230.40000000000003 148.3058191584602" height="148.3058191584602" width="230.40000000000003"><g id="SvgjsG2651"><svg viewBox="0 0 230.40000000000003 148.3058191584602" height="148.3058191584602" width="230.40000000000003" id="SvgjsSvg2650"><g><svg viewBox="0 0 230.40000000000003 148.3058191584602" height="148.3058191584602" width="230.40000000000003"><g transform="matrix(1,0,0,1,0,0)"><svg width="230.40000000000003" viewBox="1 -35.70000076293945 55.849998474121094 35.95000076293945" height="148.3058191584602" data-palette-color="url(#bca3ecdd-cfbb-4544-ae17-145dadebd0a2)"></svg></g></svg></g></svg></g></svg></g><g transform="matrix(1,0,0,1,61.80480000000001,183.31726372211284)"><svg viewBox="0 0 106.79040000000002 48.66394227539064" height="48.66394227539064" width="106.79040000000002"><g><svg xmlns="http://www.w3.org/2000/svg" xmlns:xlink="http://www.w3.org/1999/xlink" version="1.1" x="0" y="0" viewBox="5 29.493873596191406 90 41.01262664794922" enable-background="new 0 0 100 100" xml:space="preserve" height="48.66394227539064" width="106.79040000000002" class="icon-icon-0" data-fill-palette-color="accent" id="SvgjsSvg2649"></svg></g></svg></g><g></g></svg></g></svg></g></svg></g></svg></g><defs></defs><mask><g id="SvgjsG2648"><svg viewBox="0 0 512 320" height="320" width="512"><g><svg></svg></g><g><svg viewBox="0 0 512 320" height="320" width="512"><g></g><g transform="matrix(1,0,0,1,176.54528762041886,80)"><svg viewBox="0 0 158.90942475916228 160" height="160" width="158.90942475916228"><g><svg viewBox="0 0 158.90942475916228 160" height="160" width="158.90942475916228"><g><svg viewBox="0 0 230.40000000000003 231.98120599750348" height="160" width="158.90942475916228"><g><svg viewBox="0 0 230.40000000000003 148.3058191584602" height="148.3058191584602" width="230.40000000000003"><g id="SvgjsG2647"><svg viewBox="0 0 230.40000000000003 148.3058191584602" height="148.3058191584602" width="230.40000000000003" id="SvgjsSvg2646"><g><svg viewBox="0 0 230.40000000000003 148.3058191584602" height="148.3058191584602" width="230.40000000000003"><g transform="matrix(1,0,0,1,0,0)"><svg width="230.40000000000003" viewBox="1 -35.70000076293945 55.849998474121094 35.95000076293945" height="148.3058191584602" data-palette-color="url(#bca3ecdd-cfbb-4544-ae17-145dadebd0a2)"></svg></g></svg></g></svg></g></svg></g><g transform="matrix(1,0,0,1,61.80480000000001,183.31726372211284)"><svg viewBox="0 0 106.79040000000002 48.66394227539064" height="48.66394227539064" width="106.79040000000002"><g><svg xmlns="http://www.w3.org/2000/svg" xmlns:xlink="http://www.w3.org/1999/xlink" version="1.1" x="0" y="0" viewBox="5 29.493873596191406 90 41.01262664794922" enable-background="new 0 0 100 100" xml:space="preserve" height="48.66394227539064" width="106.79040000000002" class="icon-icon-0" data-fill-palette-color="accent" id="SvgjsSvg2645"></svg></g></svg></g><g></g></svg></g></svg></g></svg></g></svg></g><defs></defs></svg></g></mask></svg></g></mask></svg></g></mask><linearGradient x1="0" x2="1" y1="0.578" y2="0.595" id="da0363f7-797f-4826-a58c-44310904b1fd"><stop stop-color="#6ee2f5" offset="0"></stop><stop stop-color="#6454f0" offset="1"></stop></linearGradient></svg><rect width="512" height="320" fill="none" stroke="none" visibility="hidden"></rect></g></svg></g></svg>